<mxfile host="app.diagrams.net" agent="Mozilla/5.0 (X11; Linux x86_64; rv:133.0) Gecko/20100101 Firefox/133.0" version="24.8.6">
  <diagram name="Seite-1" id="uUMlg6GqE2Maxl7x4061">
    <mxGraphModel dx="1770" dy="1211" grid="1" gridSize="10" guides="1" tooltips="1" connect="1" arrows="1" fold="1" page="1" pageScale="1" pageWidth="827" pageHeight="1169" math="0" shadow="0">
      <root>
        <mxCell id="0" />
        <mxCell id="1" parent="0" />
        <mxCell id="Y1Wxb-fKC7w3Xf1_6LL6-1" value="&lt;div align=&quot;left&quot;&gt;&lt;font style=&quot;font-size: 30px;&quot;&gt;Server-PC&lt;/font&gt;&lt;/div&gt;&lt;div&gt;&lt;br&gt;&lt;/div&gt;&lt;div&gt;Software: NixOS, Git &lt;br&gt;&lt;/div&gt;&lt;div&gt;Docker, Docker-Compose&lt;br&gt;&lt;/div&gt;" style="rounded=1;whiteSpace=wrap;html=1;align=left;" vertex="1" parent="1">
          <mxGeometry x="40" y="490" width="700" height="690" as="geometry" />
        </mxCell>
        <mxCell id="Y1Wxb-fKC7w3Xf1_6LL6-2" value="&lt;div&gt;Client-PC&lt;/div&gt;&lt;div&gt;Software: NixOS, Firefox, gnome-connections&lt;br&gt;&lt;/div&gt;" style="rounded=1;whiteSpace=wrap;html=1;" vertex="1" parent="1">
          <mxGeometry x="1101" y="780" width="290" height="90" as="geometry" />
        </mxCell>
        <mxCell id="Y1Wxb-fKC7w3Xf1_6LL6-3" value="&lt;div style=&quot;font-size: 20px;&quot; align=&quot;left&quot;&gt;&lt;font style=&quot;font-size: 20px;&quot;&gt;Docker&lt;/font&gt;&lt;/div&gt;" style="rounded=1;whiteSpace=wrap;html=1;align=left;" vertex="1" parent="1">
          <mxGeometry x="263" y="505" width="450" height="660" as="geometry" />
        </mxCell>
        <mxCell id="Y1Wxb-fKC7w3Xf1_6LL6-4" value="&lt;div&gt;SMB&lt;/div&gt;&lt;div&gt;smb.local&lt;br&gt;&lt;/div&gt;" style="rounded=1;whiteSpace=wrap;html=1;" vertex="1" parent="1">
          <mxGeometry x="294" y="530" width="120" height="60" as="geometry" />
        </mxCell>
        <mxCell id="Y1Wxb-fKC7w3Xf1_6LL6-6" value="&lt;div&gt;FTP&lt;br&gt;&lt;/div&gt;&lt;div&gt;FTP.local&lt;br&gt;&lt;/div&gt;" style="rounded=1;whiteSpace=wrap;html=1;" vertex="1" parent="1">
          <mxGeometry x="428" y="530" width="120" height="60" as="geometry" />
        </mxCell>
        <mxCell id="Y1Wxb-fKC7w3Xf1_6LL6-7" value="&lt;div&gt;Debian-VNC&lt;br&gt;&lt;/div&gt;&lt;div&gt;vm.local&lt;/div&gt;" style="rounded=1;whiteSpace=wrap;html=1;" vertex="1" parent="1">
          <mxGeometry x="420" y="810" width="120" height="60" as="geometry" />
        </mxCell>
        <mxCell id="Y1Wxb-fKC7w3Xf1_6LL6-8" value="&lt;div&gt;Wordpress&lt;br&gt;&lt;/div&gt;&lt;div&gt;wordpress.local&lt;/div&gt;" style="rounded=1;whiteSpace=wrap;html=1;" vertex="1" parent="1">
          <mxGeometry x="548" y="830" width="120" height="60" as="geometry" />
        </mxCell>
        <mxCell id="Y1Wxb-fKC7w3Xf1_6LL6-10" value="&lt;div&gt;DNS&lt;/div&gt;&lt;div&gt;unbound.local&lt;br&gt;&lt;/div&gt;" style="rounded=1;whiteSpace=wrap;html=1;" vertex="1" parent="1">
          <mxGeometry x="560" y="530" width="120" height="60" as="geometry" />
        </mxCell>
        <mxCell id="Y1Wxb-fKC7w3Xf1_6LL6-11" value="&lt;div&gt;Wordpress-DB&lt;br&gt;&lt;/div&gt;&lt;div&gt;mariadb.local&lt;br&gt;&lt;/div&gt;" style="rounded=1;whiteSpace=wrap;html=1;" vertex="1" parent="1">
          <mxGeometry x="560" y="600" width="120" height="60" as="geometry" />
        </mxCell>
        <mxCell id="Y1Wxb-fKC7w3Xf1_6LL6-12" value="&lt;div&gt;Grafana&lt;/div&gt;&lt;div&gt;grafana.local&lt;br&gt;&lt;/div&gt;" style="rounded=1;whiteSpace=wrap;html=1;" vertex="1" parent="1">
          <mxGeometry x="270" y="770" width="120" height="60" as="geometry" />
        </mxCell>
        <mxCell id="Y1Wxb-fKC7w3Xf1_6LL6-13" value="&lt;div&gt;Prometheus&lt;/div&gt;&lt;div&gt;prometheus.local&lt;br&gt;&lt;/div&gt;" style="rounded=1;whiteSpace=wrap;html=1;" vertex="1" parent="1">
          <mxGeometry x="560" y="740" width="120" height="60" as="geometry" />
        </mxCell>
        <mxCell id="Y1Wxb-fKC7w3Xf1_6LL6-14" value="&lt;div&gt;node-exporter&lt;/div&gt;&lt;div&gt;node-exporter.local&lt;br&gt;&lt;/div&gt;" style="rounded=1;whiteSpace=wrap;html=1;" vertex="1" parent="1">
          <mxGeometry x="560" y="670" width="120" height="60" as="geometry" />
        </mxCell>
        <mxCell id="Y1Wxb-fKC7w3Xf1_6LL6-15" value="&lt;div&gt;WikiJS&lt;/div&gt;&lt;div&gt;wiki.local&lt;br&gt;&lt;/div&gt;" style="rounded=1;whiteSpace=wrap;html=1;" vertex="1" parent="1">
          <mxGeometry x="294" y="600" width="120" height="60" as="geometry" />
        </mxCell>
        <mxCell id="Y1Wxb-fKC7w3Xf1_6LL6-16" value="&lt;div&gt;Wiki-Datenbank&lt;br&gt;&lt;/div&gt;&lt;div&gt;db.local&lt;br&gt;&lt;/div&gt;" style="rounded=1;whiteSpace=wrap;html=1;" vertex="1" parent="1">
          <mxGeometry x="294" y="850" width="120" height="60" as="geometry" />
        </mxCell>
        <mxCell id="Y1Wxb-fKC7w3Xf1_6LL6-18" value="" style="endArrow=none;html=1;rounded=0;" edge="1" parent="1" target="Y1Wxb-fKC7w3Xf1_6LL6-2">
          <mxGeometry width="50" height="50" relative="1" as="geometry">
            <mxPoint x="740" y="840" as="sourcePoint" />
            <mxPoint x="790" y="790" as="targetPoint" />
          </mxGeometry>
        </mxCell>
        <mxCell id="Y1Wxb-fKC7w3Xf1_6LL6-19" value="TCP/IP-Verbindung" style="edgeLabel;html=1;align=center;verticalAlign=middle;resizable=0;points=[];" vertex="1" connectable="0" parent="Y1Wxb-fKC7w3Xf1_6LL6-18">
          <mxGeometry x="-0.0394" y="3" relative="1" as="geometry">
            <mxPoint as="offset" />
          </mxGeometry>
        </mxCell>
        <mxCell id="Y1Wxb-fKC7w3Xf1_6LL6-20" value="&lt;font style=&quot;font-size: 30px;&quot;&gt;Client und Server kÃ¶nnen auch beide die selbe Maschine sein.&lt;font style=&quot;font-size: 30px;&quot;&gt;&lt;br&gt;&lt;/font&gt;&lt;/font&gt;" style="text;html=1;align=center;verticalAlign=middle;whiteSpace=wrap;rounded=0;" vertex="1" parent="1">
          <mxGeometry x="760" y="940" width="620" height="30" as="geometry" />
        </mxCell>
        <mxCell id="Y1Wxb-fKC7w3Xf1_6LL6-21" value="&lt;div&gt;Docker-Netzwerk&lt;/div&gt;&lt;div&gt;10.13.12.0/24&lt;/div&gt;&lt;div&gt;fd69:acab:1312::/64&lt;br&gt;&lt;/div&gt;" style="rounded=0;whiteSpace=wrap;html=1;" vertex="1" parent="1">
          <mxGeometry x="428" y="670" width="120" height="60" as="geometry" />
        </mxCell>
        <mxCell id="Y1Wxb-fKC7w3Xf1_6LL6-23" value="" style="endArrow=none;html=1;rounded=0;exitX=0.467;exitY=-0.012;exitDx=0;exitDy=0;exitPerimeter=0;" edge="1" parent="1" source="Y1Wxb-fKC7w3Xf1_6LL6-7" target="Y1Wxb-fKC7w3Xf1_6LL6-21">
          <mxGeometry width="50" height="50" relative="1" as="geometry">
            <mxPoint x="410" y="850" as="sourcePoint" />
            <mxPoint x="460" y="800" as="targetPoint" />
          </mxGeometry>
        </mxCell>
        <mxCell id="Y1Wxb-fKC7w3Xf1_6LL6-24" value="" style="endArrow=none;html=1;rounded=0;exitX=0.217;exitY=0.024;exitDx=0;exitDy=0;exitPerimeter=0;entryX=0.5;entryY=1;entryDx=0;entryDy=0;" edge="1" parent="1" source="Y1Wxb-fKC7w3Xf1_6LL6-8" target="Y1Wxb-fKC7w3Xf1_6LL6-21">
          <mxGeometry width="50" height="50" relative="1" as="geometry">
            <mxPoint x="436" y="819" as="sourcePoint" />
            <mxPoint x="481" y="740" as="targetPoint" />
          </mxGeometry>
        </mxCell>
        <mxCell id="Y1Wxb-fKC7w3Xf1_6LL6-25" value="" style="endArrow=none;html=1;rounded=0;exitX=0.217;exitY=0.024;exitDx=0;exitDy=0;exitPerimeter=0;entryX=0.75;entryY=1;entryDx=0;entryDy=0;" edge="1" parent="1" target="Y1Wxb-fKC7w3Xf1_6LL6-21">
          <mxGeometry width="50" height="50" relative="1" as="geometry">
            <mxPoint x="560" y="780" as="sourcePoint" />
            <mxPoint x="522" y="699" as="targetPoint" />
          </mxGeometry>
        </mxCell>
        <mxCell id="Y1Wxb-fKC7w3Xf1_6LL6-26" value="" style="endArrow=none;html=1;rounded=0;exitX=-0.004;exitY=0.607;exitDx=0;exitDy=0;exitPerimeter=0;entryX=0.75;entryY=1;entryDx=0;entryDy=0;" edge="1" parent="1" source="Y1Wxb-fKC7w3Xf1_6LL6-14">
          <mxGeometry width="50" height="50" relative="1" as="geometry">
            <mxPoint x="590" y="750" as="sourcePoint" />
            <mxPoint x="548" y="700" as="targetPoint" />
          </mxGeometry>
        </mxCell>
        <mxCell id="Y1Wxb-fKC7w3Xf1_6LL6-27" value="" style="endArrow=none;html=1;rounded=0;exitX=0.217;exitY=0.024;exitDx=0;exitDy=0;exitPerimeter=0;entryX=0.75;entryY=1;entryDx=0;entryDy=0;" edge="1" parent="1">
          <mxGeometry width="50" height="50" relative="1" as="geometry">
            <mxPoint x="456" y="670" as="sourcePoint" />
            <mxPoint x="414" y="620" as="targetPoint" />
          </mxGeometry>
        </mxCell>
        <mxCell id="Y1Wxb-fKC7w3Xf1_6LL6-28" value="" style="endArrow=none;html=1;rounded=0;entryX=0.939;entryY=0.988;entryDx=0;entryDy=0;exitX=0.364;exitY=-0.012;exitDx=0;exitDy=0;exitPerimeter=0;entryPerimeter=0;" edge="1" parent="1" source="Y1Wxb-fKC7w3Xf1_6LL6-21" target="Y1Wxb-fKC7w3Xf1_6LL6-4">
          <mxGeometry width="50" height="50" relative="1" as="geometry">
            <mxPoint x="450" y="670" as="sourcePoint" />
            <mxPoint x="424" y="630" as="targetPoint" />
          </mxGeometry>
        </mxCell>
        <mxCell id="Y1Wxb-fKC7w3Xf1_6LL6-29" value="" style="endArrow=none;html=1;rounded=0;entryX=0.448;entryY=1.012;entryDx=0;entryDy=0;entryPerimeter=0;" edge="1" parent="1" target="Y1Wxb-fKC7w3Xf1_6LL6-6">
          <mxGeometry width="50" height="50" relative="1" as="geometry">
            <mxPoint x="482" y="670" as="sourcePoint" />
            <mxPoint x="424" y="600" as="targetPoint" />
          </mxGeometry>
        </mxCell>
        <mxCell id="Y1Wxb-fKC7w3Xf1_6LL6-30" value="" style="endArrow=none;html=1;rounded=0;entryX=0;entryY=0.75;entryDx=0;entryDy=0;exitX=0.75;exitY=0;exitDx=0;exitDy=0;" edge="1" parent="1" source="Y1Wxb-fKC7w3Xf1_6LL6-21" target="Y1Wxb-fKC7w3Xf1_6LL6-10">
          <mxGeometry width="50" height="50" relative="1" as="geometry">
            <mxPoint x="559.29" y="649" as="sourcePoint" />
            <mxPoint x="559.29" y="570" as="targetPoint" />
          </mxGeometry>
        </mxCell>
        <mxCell id="Y1Wxb-fKC7w3Xf1_6LL6-31" value="" style="endArrow=none;html=1;rounded=0;entryX=0;entryY=0.25;entryDx=0;entryDy=0;" edge="1" parent="1" target="Y1Wxb-fKC7w3Xf1_6LL6-11">
          <mxGeometry width="50" height="50" relative="1" as="geometry">
            <mxPoint x="530" y="670" as="sourcePoint" />
            <mxPoint x="570" y="585" as="targetPoint" />
          </mxGeometry>
        </mxCell>
        <mxCell id="Y1Wxb-fKC7w3Xf1_6LL6-32" value="" style="endArrow=none;html=1;rounded=0;entryX=0.014;entryY=0.857;entryDx=0;entryDy=0;entryPerimeter=0;exitX=0.75;exitY=0;exitDx=0;exitDy=0;" edge="1" parent="1" source="Y1Wxb-fKC7w3Xf1_6LL6-16">
          <mxGeometry width="50" height="50" relative="1" as="geometry">
            <mxPoint x="414" y="758.58" as="sourcePoint" />
            <mxPoint x="435.68000000000006" y="730.0000000000001" as="targetPoint" />
          </mxGeometry>
        </mxCell>
        <mxCell id="Y1Wxb-fKC7w3Xf1_6LL6-34" value="" style="endArrow=none;html=1;rounded=0;entryX=0;entryY=0.75;entryDx=0;entryDy=0;exitX=1;exitY=0.5;exitDx=0;exitDy=0;" edge="1" parent="1" source="Y1Wxb-fKC7w3Xf1_6LL6-12" target="Y1Wxb-fKC7w3Xf1_6LL6-21">
          <mxGeometry width="50" height="50" relative="1" as="geometry">
            <mxPoint x="424" y="768.58" as="sourcePoint" />
            <mxPoint x="445.68000000000006" y="740.0000000000001" as="targetPoint" />
          </mxGeometry>
        </mxCell>
        <mxCell id="Y1Wxb-fKC7w3Xf1_6LL6-36" value="NAT" style="whiteSpace=wrap;html=1;aspect=fixed;" vertex="1" parent="1">
          <mxGeometry x="214" y="660" width="80" height="80" as="geometry" />
        </mxCell>
        <mxCell id="Y1Wxb-fKC7w3Xf1_6LL6-37" value="" style="rounded=0;whiteSpace=wrap;html=1;" vertex="1" parent="1">
          <mxGeometry x="294" y="698" width="136" height="10" as="geometry" />
        </mxCell>
        <mxCell id="Y1Wxb-fKC7w3Xf1_6LL6-39" value="" style="endArrow=none;dashed=1;html=1;dashPattern=1 3;strokeWidth=2;rounded=0;entryX=0.25;entryY=0;entryDx=0;entryDy=0;exitX=1.016;exitY=0.625;exitDx=0;exitDy=0;exitPerimeter=0;" edge="1" parent="1" source="Y1Wxb-fKC7w3Xf1_6LL6-36" target="Y1Wxb-fKC7w3Xf1_6LL6-7">
          <mxGeometry width="50" height="50" relative="1" as="geometry">
            <mxPoint x="410" y="850" as="sourcePoint" />
            <mxPoint x="460" y="800" as="targetPoint" />
          </mxGeometry>
        </mxCell>
        <mxCell id="Y1Wxb-fKC7w3Xf1_6LL6-40" value="Portweiterleitung" style="edgeLabel;html=1;align=center;verticalAlign=middle;resizable=0;points=[];" vertex="1" connectable="0" parent="Y1Wxb-fKC7w3Xf1_6LL6-39">
          <mxGeometry x="-0.2772" y="2" relative="1" as="geometry">
            <mxPoint as="offset" />
          </mxGeometry>
        </mxCell>
        <mxCell id="Y1Wxb-fKC7w3Xf1_6LL6-41" value="Hostnetzwerk" style="whiteSpace=wrap;html=1;aspect=fixed;" vertex="1" parent="1">
          <mxGeometry x="10" y="660" width="80" height="80" as="geometry" />
        </mxCell>
        <mxCell id="Y1Wxb-fKC7w3Xf1_6LL6-42" value="" style="endArrow=none;html=1;rounded=0;entryX=0;entryY=0.596;entryDx=0;entryDy=0;entryPerimeter=0;" edge="1" parent="1" target="Y1Wxb-fKC7w3Xf1_6LL6-36">
          <mxGeometry width="50" height="50" relative="1" as="geometry">
            <mxPoint x="90" y="708" as="sourcePoint" />
            <mxPoint x="140" y="658" as="targetPoint" />
          </mxGeometry>
        </mxCell>
        <mxCell id="Y1Wxb-fKC7w3Xf1_6LL6-43" value="" style="endArrow=none;dashed=1;html=1;dashPattern=1 3;strokeWidth=2;rounded=0;entryX=0;entryY=0.25;entryDx=0;entryDy=0;exitX=0;exitY=0.25;exitDx=0;exitDy=0;" edge="1" parent="1" source="Y1Wxb-fKC7w3Xf1_6LL6-41" target="Y1Wxb-fKC7w3Xf1_6LL6-36">
          <mxGeometry width="50" height="50" relative="1" as="geometry">
            <mxPoint x="220" y="780" as="sourcePoint" />
            <mxPoint x="270" y="730" as="targetPoint" />
          </mxGeometry>
        </mxCell>
        <mxCell id="Y1Wxb-fKC7w3Xf1_6LL6-46" value="Portweiterleitung" style="edgeLabel;html=1;align=center;verticalAlign=middle;resizable=0;points=[];" vertex="1" connectable="0" parent="Y1Wxb-fKC7w3Xf1_6LL6-43">
          <mxGeometry x="0.4641" y="1" relative="1" as="geometry">
            <mxPoint as="offset" />
          </mxGeometry>
        </mxCell>
      </root>
    </mxGraphModel>
  </diagram>
</mxfile>
